<svg width="24" height="24" viewBox="0 0 24 24" fill="none" xmlns="http://www.w3.org/2000/svg">
<path d="M14.7419 1.08301C14.8405 1.08283 14.9381 1.10208 15.0292 1.13966C15.1204 1.17724 15.2032 1.23241 15.2729 1.30201L22.6979 8.72701C22.8385 8.86765 22.9175 9.05839 22.9175 9.25726C22.9175 9.45613 22.8385 9.64686 22.6979 9.78751C21.9779 10.5075 21.0899 10.6695 20.4434 10.6695C20.1779 10.6695 19.9409 10.6425 19.7534 10.611L15.0524 15.312C15.1762 15.8106 15.2565 16.319 15.2924 16.8315C15.3614 17.8845 15.2444 19.362 14.2124 20.394C14.0718 20.5346 13.8811 20.6136 13.6822 20.6136C13.4833 20.6136 13.2926 20.5346 13.1519 20.394L8.90845 16.152L4.13545 20.925C3.84295 21.2175 2.30695 22.278 2.01445 21.9855C1.72195 21.693 2.78245 20.1555 3.07495 19.8645L7.84795 15.0915L3.60595 10.848C3.46534 10.7074 3.38636 10.5166 3.38636 10.3178C3.38636 10.1189 3.46534 9.92815 3.60595 9.78751C4.63795 8.75551 6.11545 8.63701 7.16845 8.70751C7.68093 8.74342 8.18934 8.82372 8.68795 8.94751L13.3889 4.24801C13.3497 4.01958 13.3296 3.78828 13.3289 3.55651C13.3289 2.91151 13.4909 2.02351 14.2124 1.30201C14.353 1.16181 14.5434 1.08305 14.7419 1.08301Z" fill="white"/>
</svg>
